# xmcd
#
# Track frame offsets: 
#        150
#        13722
#        27232
#        39252
#        60022
#        72550
#        88435
#        106752
#        125455
#        144767
#        160755
#        173572
#
# Disc length: 2570 seconds
#
# Revision: 6
# Processed by: cddbd v1.5.1PL0 Copyright (c) Steve Scherf et al.
# Submitted via: ExactAudioCopy v0.95a5
#
DISCID=8e0a080c
DTITLE=Big Bill Morganfield - Rising Son
DYEAR=1999
DGENRE=Blues
TTITLE0=Diamonds At Your Feet 
TTITLE1=Left Hand Blues
TTITLE2=I Just Keep Lovin' Her
TTITLE3=The Same Thing
TTITLE4=Dead Ass Broke
TTITLE5=Cryin' Days
TTITLE6=Sloppy Drunk
TTITLE7=Screamin' and Cryin'
TTITLE8=Baby How Long
TTITLE9=Don't Want To See You Go
TTITLE10=Champagne and Reefer
TTITLE11=Rising Son
EXTD=YEAR: 1999
EXTT0=
EXTT1=
EXTT2=
EXTT3=
EXTT4=
EXTT5=
EXTT6=
EXTT7=
EXTT8=
EXTT9=
EXTT10=
EXTT11=
PLAYORDER=
